<?xml version="1.0" standalone="no"?>
<!DOCTYPE svg PUBLIC "-//W3C//DTD SVG 20010904//EN"
 "http://www.w3.org/TR/2001/REC-SVG-20010904/DTD/svg10.dtd">
<svg version="1.0" xmlns="http://www.w3.org/2000/svg"
 width="512.000000pt" height="512.000000pt" viewBox="0 0 512.000000 512.000000"
 preserveAspectRatio="xMidYMid meet">
<metadata>
Created by potrace 1.14, written by Peter Selinger 2001-2017
</metadata>
<g transform="translate(0.000000,512.000000) scale(0.100000,-0.100000)"
fill="#000000" stroke="none">
<path d="M1877 4779 c-10 -6 -22 -21 -27 -33 -4 -12 -37 -59 -72 -105 -34 -45
-72 -100 -83 -122 l-20 -40 -98 110 c-98 112 -124 129 -172 117 -39 -10 -31
-40 40 -161 36 -60 65 -113 65 -117 0 -5 -45 -51 -99 -104 -160 -153 -276
-347 -360 -600 -74 -223 -89 -536 -36 -738 9 -33 38 -99 65 -148 28 -48 50
-89 50 -91 0 -3 -23 -7 -51 -10 -77 -9 -132 -47 -163 -109 -37 -77 -40 -120
-17 -211 53 -204 165 -320 321 -334 l58 -6 6 -56 c16 -139 44 -242 87 -313 56
-95 89 -130 235 -249 161 -131 237 -180 357 -231 l98 -42 -61 -22 c-81 -29
-214 -110 -261 -157 -78 -79 -101 -208 -54 -300 33 -66 48 -83 112 -134 96
-76 225 -107 345 -83 75 14 230 75 314 122 104 59 287 191 292 210 5 22 15 23
33 1 19 -22 256 -177 344 -224 123 -66 312 -105 388 -80 73 24 143 145 183
319 22 93 23 228 2 267 -49 90 -157 149 -307 166 -47 5 -86 11 -88 13 -3 3
110 71 200 120 164 90 185 106 231 178 91 141 114 222 131 447 7 88 8 93 21
69 18 -35 96 -72 132 -63 63 15 152 67 190 110 45 51 106 171 121 236 14 59
14 133 -1 181 -25 83 -144 178 -223 178 -37 0 -139 -26 -177 -44 l-27 -14 0
131 c0 72 5 139 10 149 5 10 10 42 11 70 1 58 -15 98 -67 163 -64 80 -142 202
-177 277 -43 90 -71 113 -125 103 -40 -7 -86 -49 -133 -123 -30 -46 -31 -46
-45 28 -13 66 -66 177 -90 190 -43 23 -91 4 -162 -63 -58 -55 -142 -156 -198
-238 -11 -16 -23 -29 -26 -29 -3 0 -20 46 -37 103 -42 138 -76 218 -96 229
-53 30 -146 -44 -299 -234 -43 -54 -82 -98 -87 -98 -16 0 -48 65 -80 165 -59
179 -78 201 -161 176 -41 -12 -89 -68 -172 -200 -21 -34 -50 -74 -64 -91 l-25
-31 -22 29 c-81 112 -161 209 -179 219 -72 40 -129 -2 -275 -204 -103 -141
-252 -402 -252 -440 0 -27 31 -73 49 -73 10 0 46 32 81 72 35 40 60 64 57 53
-9 -28 -27 -229 -27 -299 l0 -59 -20 26 c-11 14 -39 33 -62 43 l-43 17 -33
136 c-45 185 -57 355 -36 511 21 160 43 234 122 410 32 72 147 247 195 298 53
56 179 158 224 180 22 12 49 32 60 45 10 13 32 27 48 31 74 19 193 219 203
343 4 56 2 68 -13 80 -22 16 -53 16 -78 2z m873 -1424 c43 -161 58 -203 83
-226 11 -10 24 -19 27 -19 3 0 37 39 75 88 106 134 196 231 243 264 24 16 45
28 47 26 2 -1 15 -58 29 -125 25 -119 58 -206 90 -232 30 -25 53 -2 106 107
28 59 63 119 77 134 l26 27 36 -72 c20 -40 64 -116 96 -170 33 -54 71 -117 84
-141 l25 -43 -22 -90 c-36 -148 -43 -221 -52 -623 -5 -212 -13 -398 -18 -415
-44 -141 -108 -208 -261 -272 -30 -13 -68 -33 -85 -46 -86 -65 -322 -168 -637
-277 -135 -47 -143 -49 -196 -39 -31 6 -92 24 -137 40 -72 27 -142 58 -421
188 -125 59 -381 265 -441 355 -27 42 -37 72 -53 166 -19 105 -20 136 -12 351
4 130 11 241 15 247 9 15 -12 534 -24 587 -9 38 -6 43 68 156 42 64 85 131 95
149 l17 32 79 -118 c43 -66 85 -133 94 -150 26 -50 67 -94 88 -94 15 0 27 15
45 56 25 58 126 208 185 278 l33 38 22 -69 c27 -89 150 -318 180 -333 29 -16
39 -8 68 48 24 45 140 200 234 310 32 39 47 50 52 40 4 -7 22 -67 40 -133z
m-1524 -817 l69 -23 -3 -124 -3 -123 -51 6 c-62 8 -99 27 -127 62 -26 33 -66
156 -58 178 7 17 60 45 88 46 9 0 47 -10 85 -22z m2932 -15 c20 -22 23 -33 17
-72 -14 -100 -74 -176 -180 -228 -38 -19 -81 -41 -95 -48 -13 -8 -24 -13 -25
-12 0 1 1 72 3 158 l3 155 55 33 c95 58 179 63 222 14z m-693 -1427 c101 -37
108 -46 102 -136 -6 -86 -47 -225 -78 -264 -24 -31 -66 -34 -172 -11 -110 23
-215 79 -375 202 -57 43 -96 63 -151 78 l-44 11 74 31 c147 62 363 111 491
112 68 1 101 -4 153 -23z m-1100 -48 c64 -10 130 -32 149 -50 27 -24 53 -23
111 7 27 13 50 23 51 22 1 -1 -17 -23 -41 -49 -46 -48 -190 -152 -286 -206
-87 -49 -233 -102 -281 -102 -119 0 -248 79 -248 150 0 33 42 74 155 150 126
85 145 91 260 86 55 -2 114 -6 130 -8z"/>
<path d="M3118 3065 c-26 -7 -96 -36 -155 -63 -60 -28 -121 -54 -138 -57 -81
-18 -95 -26 -95 -54 0 -36 54 -111 80 -111 34 0 100 30 266 123 162 90 202
124 188 161 -8 20 -77 20 -146 1z"/>
<path d="M1840 3046 c0 -20 38 -48 163 -121 101 -59 106 -63 78 -68 -42 -9
-57 -38 -80 -153 -16 -84 -18 -118 -11 -207 5 -59 11 -111 15 -116 3 -6 10
-36 16 -68 14 -74 39 -122 84 -161 42 -37 102 -44 127 -14 49 55 65 209 43
407 -17 149 -33 204 -76 258 l-30 37 28 -12 c15 -7 37 -18 48 -25 38 -25 63
-16 85 29 11 23 20 54 20 69 0 33 -30 49 -166 85 -55 14 -110 32 -124 39 -25
13 -148 35 -194 35 -16 0 -26 -6 -26 -14z"/>
<path d="M2910 2768 c-40 -28 -86 -114 -100 -188 -14 -70 4 -254 31 -326 23
-60 74 -141 98 -153 9 -5 33 -11 54 -15 35 -7 41 -4 74 31 79 85 106 192 93
369 -14 171 -50 262 -115 290 -49 20 -97 17 -135 -8z"/>
<path d="M2527 2199 c-9 -5 -24 -24 -34 -42 -27 -52 -83 -200 -83 -220 0 -24
29 -67 46 -67 7 0 34 28 60 63 26 34 51 66 55 71 4 4 14 -5 22 -20 17 -32 75
-94 88 -94 15 0 40 46 46 84 4 29 1 42 -14 59 -12 12 -31 51 -43 87 -13 36
-30 71 -38 78 -19 14 -80 15 -105 1z"/>
<path d="M2980 1806 c-52 -18 -114 -43 -137 -55 -24 -11 -71 -32 -105 -45 -35
-13 -103 -40 -151 -59 -95 -39 -97 -39 -197 7 -19 8 -94 38 -167 66 -143 54
-193 62 -193 32 0 -26 41 -61 160 -135 58 -36 132 -83 165 -104 33 -21 81 -49
108 -62 l49 -23 66 30 c66 29 153 66 282 118 36 14 106 40 155 56 105 36 111
40 131 86 23 55 19 97 -11 110 -37 17 -49 15 -155 -22z"/>
<path d="M2643 4619 c-129 -16 -421 -88 -475 -115 -32 -16 -35 -30 -13 -61 34
-49 126 -54 335 -18 80 13 186 25 235 25 212 0 422 -64 615 -188 30 -20 97
-62 149 -94 143 -90 205 -141 268 -224 82 -106 90 -121 123 -220 15 -49 44
-129 63 -179 48 -122 64 -294 51 -549 -9 -177 -9 -179 12 -193 13 -8 32 -11
47 -8 95 24 133 214 107 536 -11 132 -18 168 -47 249 -19 52 -52 143 -73 202
-53 149 -92 214 -218 359 -35 39 -201 164 -260 193 -18 9 -69 41 -115 70 -277
180 -539 250 -804 215z"/>
</g>
</svg>